<?xml version="1.0" encoding="UTF-8" standalone="no"?><!DOCTYPE svg PUBLIC "-//W3C//DTD SVG 1.1//EN" "http://www.w3.org/Graphics/SVG/1.1/DTD/svg11.dtd"><!-- Generated by graphviz version 2.40.1 (20161225.0304)
 --><!-- Title: finite_state_machine Pages: 1 --><svg xmlns="http://www.w3.org/2000/svg" xmlns:xlink="http://www.w3.org/1999/xlink" width="261pt" height="418pt" viewBox="0.00 0.00 261.45 418.47">
<g id="graph0" class="graph" transform="scale(1 1) rotate(0) translate(4 414.4727)">
<title>finite_state_machine</title>
<polygon fill="#ffffff" stroke="transparent" points="-4,4 -4,-414.4727 257.4519,-414.4727 257.4519,4 -4,4"/>
<!-- Q0 -->
<g id="node1" class="node">
<title>Q0</title>
<ellipse fill="none" stroke="#4b0082" cx="22.8363" cy="-145.8363" rx="22.6738" ry="22.6738"/>
<text text-anchor="middle" x="22.8363" y="-141.6363" font-family="Times,serif" font-size="14.00" fill="#000000">Q0</text>
</g>
<!-- Q1 -->
<g id="node2" class="node">
<title>Q1</title>
<ellipse fill="none" stroke="#4b0082" cx="226.6156" cy="-330.8363" rx="22.6979" ry="22.6979"/>
<ellipse fill="none" stroke="#4b0082" cx="226.6156" cy="-330.8363" rx="26.6736" ry="26.6736"/>
<text text-anchor="middle" x="226.6156" y="-326.6363" font-family="Times,serif" font-size="14.00" fill="#000000">Q1</text>
</g>
<!-- Q0&#45;&gt;Q1 -->
<g id="edge1" class="edge">
<title>Q0-&gt;Q1</title>
<path fill="none" stroke="#3d3d3d" d="M39.8599,-161.2911C75.0702,-193.2566 156.1787,-266.8906 198.9921,-305.7585"/>
<polygon fill="#3d3d3d" stroke="#3d3d3d" points="196.7643,-308.4632 206.5209,-312.5935 201.4695,-303.2804 196.7643,-308.4632"/>
<text text-anchor="middle" x="122.726" y="-242.0363" font-family="Times,serif" font-size="14.00" fill="#000000">D</text>
</g>
<!-- Q2 -->
<g id="node3" class="node">
<title>Q2</title>
<ellipse fill="none" stroke="#4b0082" cx="226.6156" cy="-206.8363" rx="22.6979" ry="22.6979"/>
<ellipse fill="none" stroke="#4b0082" cx="226.6156" cy="-206.8363" rx="26.6736" ry="26.6736"/>
<text text-anchor="middle" x="226.6156" y="-202.6363" font-family="Times,serif" font-size="14.00" fill="#000000">Q2</text>
</g>
<!-- Q0&#45;&gt;Q2 -->
<g id="edge3" class="edge">
<title>Q0-&gt;Q2</title>
<path fill="none" stroke="#3d3d3d" d="M45.0322,-152.4805C80.1015,-162.9783 148.6584,-183.5004 190.7693,-196.106"/>
<polygon fill="#3d3d3d" stroke="#3d3d3d" points="190.0291,-199.5378 200.6128,-199.0526 192.0365,-192.8318 190.0291,-199.5378"/>
<text text-anchor="middle" x="122.726" y="-180.0363" font-family="Times,serif" font-size="14.00" fill="#000000">L</text>
</g>
<!-- Q3 -->
<g id="node4" class="node">
<title>Q3</title>
<ellipse fill="none" stroke="#4b0082" cx="226.6156" cy="-116.8363" rx="22.6979" ry="22.6979"/>
<ellipse fill="none" stroke="#4b0082" cx="226.6156" cy="-116.8363" rx="26.6736" ry="26.6736"/>
<text text-anchor="middle" x="226.6156" y="-112.6363" font-family="Times,serif" font-size="14.00" fill="#000000">Q3</text>
</g>
<!-- Q0&#45;&gt;Q3 -->
<g id="edge5" class="edge">
<title>Q0-&gt;Q3</title>
<path fill="none" stroke="#3d3d3d" d="M45.3818,-141.4245C64.5559,-137.773 92.8487,-132.6213 117.6727,-129.0363 141.5215,-125.5922 168.4277,-122.5707 189.5338,-120.3962"/>
<polygon fill="#3d3d3d" stroke="#3d3d3d" points="190.0951,-123.8574 199.6921,-119.3686 189.3905,-116.8929 190.0951,-123.8574"/>
<text text-anchor="middle" x="122.726" y="-133.0363" font-family="Times,serif" font-size="14.00" fill="#000000">+</text>
</g>
<!-- Q4 -->
<g id="node5" class="node">
<title>Q4</title>
<ellipse fill="none" stroke="#4b0082" cx="226.6156" cy="-26.8363" rx="22.6979" ry="22.6979"/>
<ellipse fill="none" stroke="#4b0082" cx="226.6156" cy="-26.8363" rx="26.6736" ry="26.6736"/>
<text text-anchor="middle" x="226.6156" y="-22.6363" font-family="Times,serif" font-size="14.00" fill="#000000">Q4</text>
</g>
<!-- Q0&#45;&gt;Q4 -->
<g id="edge6" class="edge">
<title>Q0-&gt;Q4</title>
<path fill="none" stroke="#3d3d3d" d="M42.7466,-134.2094C78.015,-113.6139 151.7532,-70.5534 194.3562,-45.6747"/>
<polygon fill="#3d3d3d" stroke="#3d3d3d" points="196.3334,-48.5732 203.2038,-40.508 192.8034,-42.5284 196.3334,-48.5732"/>
<text text-anchor="middle" x="122.726" y="-94.0363" font-family="Times,serif" font-size="14.00" fill="#000000">*</text>
</g>
<!-- Q1&#45;&gt;Q1 -->
<g id="edge2" class="edge">
<title>Q1-&gt;Q1</title>
<path fill="none" stroke="#3d3d3d" d="M210.8944,-352.7327C203.2463,-372.4997 208.4867,-393.6727 226.6156,-393.6727 241.7702,-393.6727 247.9185,-378.8771 245.0603,-362.4756"/>
<polygon fill="#3d3d3d" stroke="#3d3d3d" points="248.3998,-361.4212 242.3367,-352.7327 241.6583,-363.3058 248.3998,-361.4212"/>
<text text-anchor="middle" x="226.6156" y="-397.8727" font-family="Times,serif" font-size="14.00" fill="#000000">D</text>
</g>
<!-- Q2&#45;&gt;Q2 -->
<g id="edge4" class="edge">
<title>Q2-&gt;Q2</title>
<path fill="none" stroke="#3d3d3d" d="M210.8944,-228.7327C203.2463,-248.4997 208.4867,-269.6727 226.6156,-269.6727 241.7702,-269.6727 247.9185,-254.8771 245.0603,-238.4756"/>
<polygon fill="#3d3d3d" stroke="#3d3d3d" points="248.3998,-237.4212 242.3367,-228.7327 241.6583,-239.3058 248.3998,-237.4212"/>
<text text-anchor="middle" x="226.6156" y="-273.8727" font-family="Times,serif" font-size="14.00" fill="#000000">L | D</text>
</g>
</g>
</svg>