<?xml version="1.0" encoding="UTF-8" standalone="no"?><!DOCTYPE svg PUBLIC "-//W3C//DTD SVG 1.1//EN" "http://www.w3.org/Graphics/SVG/1.1/DTD/svg11.dtd"><!-- Generated by graphviz version 2.40.1 (20161225.0304)
 --><!-- Title: finite_state_machine Pages: 1 --><svg xmlns="http://www.w3.org/2000/svg" xmlns:xlink="http://www.w3.org/1999/xlink" width="638pt" height="394pt" viewBox="0.00 0.00 637.94 393.87">
<g id="graph0" class="graph" transform="scale(1 1) rotate(0) translate(4 389.8727)">
<title>finite_state_machine</title>
<polygon fill="#ffffff" stroke="transparent" points="-4,4 -4,-389.8727 633.9423,-389.8727 633.9423,4 -4,4"/>
<!-- Q0 -->
<g id="node1" class="node">
<title>Q0</title>
<ellipse fill="none" stroke="#4b0082" cx="27.0305" cy="-180.8363" rx="22.6738" ry="22.6738"/>
<text text-anchor="middle" x="27.0305" y="-176.6363" font-family="Times,serif" font-size="14.00" fill="#000000">Q0</text>
</g>
<!-- Q0&#45;&gt;Q0 -->
<g id="edge1" class="edge">
<title>Q0-&gt;Q0</title>
<path fill="none" stroke="#3d3d3d" d="M14.4278,-200.3891C-.5493,-233.1283 3.6516,-275.6727 27.0305,-275.6727 48.2176,-275.6727 53.6541,-240.7314 43.3398,-209.8124"/>
<polygon fill="#3d3d3d" stroke="#3d3d3d" points="46.5508,-208.4138 39.6332,-200.3891 40.0367,-210.9762 46.5508,-208.4138"/>
<text text-anchor="middle" x="27.0305" y="-296.6727" font-family="Times,serif" font-size="14.00" fill="#000000">( , $ / R$</text>
<text text-anchor="middle" x="27.0305" y="-279.8727" font-family="Times,serif" font-size="14.00" fill="#000000">( , R / RR</text>
</g>
<!-- Q1 -->
<g id="node2" class="node">
<title>Q1</title>
<ellipse fill="none" stroke="#4b0082" cx="267.058" cy="-223.8363" rx="22.6738" ry="22.6738"/>
<text text-anchor="middle" x="267.058" y="-219.6363" font-family="Times,serif" font-size="14.00" fill="#000000">Q1</text>
</g>
<!-- Q0&#45;&gt;Q1 -->
<g id="edge2" class="edge">
<title>Q0-&gt;Q1</title>
<path fill="none" stroke="#3d3d3d" d="M32.1125,-203.1919C39.2648,-228.8102 55.028,-269.6002 85.8668,-287.8363 128.5574,-313.0809 151.2498,-305.8521 197.458,-287.8363 216.891,-280.2598 234.1794,-264.4378 246.6647,-250.4219"/>
<polygon fill="#3d3d3d" stroke="#3d3d3d" points="249.6285,-252.3395 253.4408,-242.4543 244.2961,-247.8045 249.6285,-252.3395"/>
<text text-anchor="middle" x="141.6624" y="-324.8363" font-family="Times,serif" font-size="14.00" fill="#000000">identificador , $ / $</text>
<text text-anchor="middle" x="141.6624" y="-308.0363" font-family="Times,serif" font-size="14.00" fill="#000000">constante , $ / $</text>
</g>
<!-- Q0&#45;&gt;Q1 -->
<g id="edge3" class="edge">
<title>Q0-&gt;Q1</title>
<path fill="none" stroke="#3d3d3d" d="M49.6117,-184.8817C92.3211,-192.5329 185.071,-209.1487 234.5045,-218.0045"/>
<polygon fill="#3d3d3d" stroke="#3d3d3d" points="233.9015,-221.4521 244.362,-219.7704 235.1359,-214.5618 233.9015,-221.4521"/>
<text text-anchor="middle" x="141.6624" y="-231.8363" font-family="Times,serif" font-size="14.00" fill="#000000">identificador , R / R</text>
<text text-anchor="middle" x="141.6624" y="-215.0363" font-family="Times,serif" font-size="14.00" fill="#000000">constante , R / R</text>
</g>
<!-- Q1&#45;&gt;Q0 -->
<g id="edge4" class="edge">
<title>Q1-&gt;Q0</title>
<path fill="none" stroke="#3d3d3d" d="M261.2247,-201.735C252.5368,-173.8285 233.2438,-127.005 197.458,-106.6363 154.355,-82.1027 130.5215,-85.0554 85.8668,-106.6363 66.6331,-115.9317 51.7665,-134.9068 41.7889,-151.3407"/>
<polygon fill="#3d3d3d" stroke="#3d3d3d" points="38.6867,-149.7149 36.7521,-160.1316 44.7604,-153.1949 38.6867,-149.7149"/>
<text text-anchor="middle" x="141.6624" y="-161.4363" font-family="Times,serif" font-size="14.00" fill="#000000">+ , $ / $</text>
<text text-anchor="middle" x="141.6624" y="-144.6363" font-family="Times,serif" font-size="14.00" fill="#000000">* , $ / $</text>
<text text-anchor="middle" x="141.6624" y="-127.8363" font-family="Times,serif" font-size="14.00" fill="#000000">+ , R / R</text>
<text text-anchor="middle" x="141.6624" y="-111.0363" font-family="Times,serif" font-size="14.00" fill="#000000">* , R / R</text>
</g>
<!-- Q1&#45;&gt;Q1 -->
<g id="edge5" class="edge">
<title>Q1-&gt;Q1</title>
<path fill="none" stroke="#3d3d3d" d="M256.7748,-244.3271C245.349,-276.9348 248.7768,-318.6727 267.058,-318.6727 283.554,-318.6727 287.9559,-284.6887 280.2637,-254.094"/>
<polygon fill="#3d3d3d" stroke="#3d3d3d" points="283.561,-252.9041 277.3412,-244.3271 276.8548,-254.9108 283.561,-252.9041"/>
<text text-anchor="middle" x="267.058" y="-373.2727" font-family="Times,serif" font-size="14.00" fill="#000000">identificador , R / R</text>
<text text-anchor="middle" x="267.058" y="-356.4727" font-family="Times,serif" font-size="14.00" fill="#000000">constante , R / R</text>
<text text-anchor="middle" x="267.058" y="-339.6727" font-family="Times,serif" font-size="14.00" fill="#000000">identificador , $ / $</text>
<text text-anchor="middle" x="267.058" y="-322.8727" font-family="Times,serif" font-size="14.00" fill="#000000">constante , $ / $</text>
</g>
<!-- Q2 -->
<g id="node3" class="node">
<title>Q2</title>
<ellipse fill="none" stroke="#4b0082" cx="439.0428" cy="-22.8363" rx="22.6738" ry="22.6738"/>
<text text-anchor="middle" x="439.0428" y="-18.6363" font-family="Times,serif" font-size="14.00" fill="#000000">Q2</text>
</g>
<!-- Q1&#45;&gt;Q2 -->
<g id="edge6" class="edge">
<title>Q1-&gt;Q2</title>
<path fill="none" stroke="#3d3d3d" d="M282.0197,-206.3505C312.5131,-170.7127 381.9552,-89.555 417.3828,-48.1504"/>
<polygon fill="#3d3d3d" stroke="#3d3d3d" points="420.1512,-50.2985 423.9932,-40.4248 414.8325,-45.7476 420.1512,-50.2985"/>
<text text-anchor="middle" x="358.4322" y="-145.0363" font-family="Times,serif" font-size="14.00" fill="#000000">) , R / Ε</text>
</g>
<!-- Q3 -->
<g id="node4" class="node">
<title>Q3</title>
<ellipse fill="none" stroke="#4b0082" cx="603.106" cy="-122.8363" rx="22.6979" ry="22.6979"/>
<ellipse fill="none" stroke="#4b0082" cx="603.106" cy="-122.8363" rx="26.6736" ry="26.6736"/>
<text text-anchor="middle" x="603.106" y="-118.6363" font-family="Times,serif" font-size="14.00" fill="#000000">Q3</text>
</g>
<!-- Q1&#45;&gt;Q3 -->
<g id="edge10" class="edge">
<title>Q1-&gt;Q3</title>
<path fill="none" stroke="#3d3d3d" d="M289.1071,-217.2094C346.0293,-200.1013 498.2988,-154.3364 567.7259,-133.4699"/>
<polygon fill="#3d3d3d" stroke="#3d3d3d" points="568.7776,-136.8086 577.3469,-130.5783 566.7627,-130.1048 568.7776,-136.8086"/>
<text text-anchor="middle" x="439.0428" y="-182.0363" font-family="Times,serif" font-size="14.00" fill="#000000">$ , $ / $</text>
</g>
<!-- Q2&#45;&gt;Q0 -->
<g id="edge8" class="edge">
<title>Q2-&gt;Q0</title>
<path fill="none" stroke="#3d3d3d" d="M416.3135,-19.4474C356.2749,-11.7625 190.8719,1.0618 85.8668,-71.8363 59.7836,-89.9442 44.2155,-123.4254 35.71,-148.5216"/>
<polygon fill="#3d3d3d" stroke="#3d3d3d" points="32.2781,-147.7648 32.5875,-158.3551 38.9499,-149.8833 32.2781,-147.7648"/>
<text text-anchor="middle" x="267.058" y="-40.8363" font-family="Times,serif" font-size="14.00" fill="#000000">+ , R / R</text>
<text text-anchor="middle" x="267.058" y="-24.0363" font-family="Times,serif" font-size="14.00" fill="#000000">* , R / R</text>
</g>
<!-- Q2&#45;&gt;Q2 -->
<g id="edge7" class="edge">
<title>Q2-&gt;Q2</title>
<path fill="none" stroke="#3d3d3d" d="M429.7566,-43.798C419.7755,-76.3352 422.8709,-117.6727 439.0428,-117.6727 453.6353,-117.6727 457.5808,-84.0147 450.879,-53.5355"/>
<polygon fill="#3d3d3d" stroke="#3d3d3d" points="454.2482,-52.5851 448.329,-43.798 447.4766,-54.3585 454.2482,-52.5851"/>
<text text-anchor="middle" x="439.0428" y="-121.8727" font-family="Times,serif" font-size="14.00" fill="#000000">) , R / Ε</text>
</g>
<!-- Q2&#45;&gt;Q3 -->
<g id="edge9" class="edge">
<title>Q2-&gt;Q3</title>
<path fill="none" stroke="#3d3d3d" d="M458.8326,-34.8987C486.7216,-51.8976 537.895,-83.0888 571.197,-103.3871"/>
<polygon fill="#3d3d3d" stroke="#3d3d3d" points="569.7213,-106.5865 580.0818,-108.8026 573.3645,-100.6093 569.7213,-106.5865"/>
<text text-anchor="middle" x="519.0744" y="-86.0363" font-family="Times,serif" font-size="14.00" fill="#000000">$ , $ / $</text>
</g>
</g>
</svg>