<?xml version="1.0" encoding="UTF-8" standalone="no"?><!DOCTYPE svg PUBLIC "-//W3C//DTD SVG 1.1//EN" "http://www.w3.org/Graphics/SVG/1.1/DTD/svg11.dtd"><!-- Generated by graphviz version 2.40.1 (20161225.0304)
 --><!-- Title: finite_state_machine Pages: 1 --><svg xmlns="http://www.w3.org/2000/svg" xmlns:xlink="http://www.w3.org/1999/xlink" width="204pt" height="324pt" viewBox="0.00 0.00 204.04 324.47">
<g id="graph0" class="graph" transform="scale(1 1) rotate(0) translate(4 320.4727)">
<title>finite_state_machine</title>
<polygon fill="#ffffff" stroke="transparent" points="-4,4 -4,-320.4727 200.0385,-320.4727 200.0385,4 -4,4"/>
<!-- Q0 -->
<g id="node1" class="node">
<title>Q0</title>
<ellipse fill="none" stroke="#4b0082" cx="22.8363" cy="-113.8363" rx="22.6738" ry="22.6738"/>
<text text-anchor="middle" x="22.8363" y="-109.6363" font-family="Times,serif" font-size="14.00" fill="#000000">Q0</text>
</g>
<!-- Q1 -->
<g id="node2" class="node">
<title>Q1</title>
<ellipse fill="none" stroke="#4b0082" cx="169.2022" cy="-200.8363" rx="22.6979" ry="22.6979"/>
<ellipse fill="none" stroke="#4b0082" cx="169.2022" cy="-200.8363" rx="26.6736" ry="26.6736"/>
<text text-anchor="middle" x="169.2022" y="-196.6363" font-family="Times,serif" font-size="14.00" fill="#000000">Q1</text>
</g>
<!-- Q0&#45;&gt;Q1 -->
<g id="edge1" class="edge">
<title>Q0-&gt;Q1</title>
<path fill="none" stroke="#3d3d3d" d="M35.5367,-133.1902C46.1622,-147.8646 62.6197,-167.3977 81.6727,-178.8363 96.88,-187.9663 115.7536,-193.3236 132.0773,-196.4595"/>
<polygon fill="#3d3d3d" stroke="#3d3d3d" points="131.9255,-199.9842 142.3719,-198.2168 133.1035,-193.084 131.9255,-199.9842"/>
<text text-anchor="middle" x="94.0193" y="-194.0363" font-family="Times,serif" font-size="14.00" fill="#000000">0-9</text>
</g>
<!-- Q2 -->
<g id="node3" class="node">
<title>Q2</title>
<ellipse fill="none" stroke="#4b0082" cx="169.2022" cy="-26.8363" rx="22.6979" ry="22.6979"/>
<ellipse fill="none" stroke="#4b0082" cx="169.2022" cy="-26.8363" rx="26.6736" ry="26.6736"/>
<text text-anchor="middle" x="169.2022" y="-22.6363" font-family="Times,serif" font-size="14.00" fill="#000000">Q2</text>
</g>
<!-- Q0&#45;&gt;Q2 -->
<g id="edge2" class="edge">
<title>Q0-&gt;Q2</title>
<path fill="none" stroke="#3d3d3d" d="M38.2039,-96.7136C49.3493,-85.1137 65.287,-70.1191 81.6727,-60.0363 97.6059,-50.2319 116.9074,-42.5321 133.3266,-37.0265"/>
<polygon fill="#3d3d3d" stroke="#3d3d3d" points="134.6696,-40.2714 143.1216,-33.8829 132.5304,-33.6063 134.6696,-40.2714"/>
<text text-anchor="middle" x="94.0193" y="-65.0363" font-family="Times,serif" font-size="14.00" fill="#000000">a-Z</text>
</g>
<!-- Q1&#45;&gt;Q0 -->
<g id="edge5" class="edge">
<title>Q1-&gt;Q0</title>
<path fill="none" stroke="#3d3d3d" d="M148.3903,-183.7543C136.4787,-174.3879 121.0276,-162.912 106.3659,-154.0363 89.492,-143.8215 69.6293,-134.1733 53.5073,-126.8905"/>
<polygon fill="#3d3d3d" stroke="#3d3d3d" points="54.5729,-123.5343 44.0127,-122.6777 51.7338,-129.9327 54.5729,-123.5343"/>
<text text-anchor="middle" x="94.0193" y="-158.0363" font-family="Times,serif" font-size="14.00" fill="#000000">+ | *</text>
</g>
<!-- Q1&#45;&gt;Q1 -->
<g id="edge4" class="edge">
<title>Q1-&gt;Q1</title>
<path fill="none" stroke="#3d3d3d" d="M159.7173,-226.1517C151.5874,-259.4561 154.7491,-299.6727 169.2022,-299.6727 182.2439,-299.6727 186.0917,-266.9273 180.7458,-236.0627"/>
<polygon fill="#3d3d3d" stroke="#3d3d3d" points="184.1478,-235.2308 178.687,-226.1517 177.2941,-236.6545 184.1478,-235.2308"/>
<text text-anchor="middle" x="169.2022" y="-303.8727" font-family="Times,serif" font-size="14.00" fill="#000000">0-9</text>
</g>
<!-- Q2&#45;&gt;Q0 -->
<g id="edge6" class="edge">
<title>Q2-&gt;Q0</title>
<path fill="none" stroke="#3d3d3d" d="M144.6269,-15.3307C126.1696,-8.4873 100.875,-3.066 81.6727,-14.0363 56.306,-28.5284 40.7838,-58.7033 32.101,-82.0994"/>
<polygon fill="#3d3d3d" stroke="#3d3d3d" points="28.7601,-81.0509 28.7897,-91.6457 35.3736,-83.3449 28.7601,-81.0509"/>
<text text-anchor="middle" x="94.0193" y="-19.0363" font-family="Times,serif" font-size="14.00" fill="#000000">+ | *</text>
</g>
<!-- Q2&#45;&gt;Q2 -->
<g id="edge3" class="edge">
<title>Q2-&gt;Q2</title>
<path fill="none" stroke="#3d3d3d" d="M159.7173,-52.1517C151.5874,-85.4561 154.7491,-125.6727 169.2022,-125.6727 182.2439,-125.6727 186.0917,-92.9273 180.7458,-62.0627"/>
<polygon fill="#3d3d3d" stroke="#3d3d3d" points="184.1478,-61.2308 178.687,-52.1517 177.2941,-62.6545 184.1478,-61.2308"/>
<text text-anchor="middle" x="169.2022" y="-129.8727" font-family="Times,serif" font-size="14.00" fill="#000000">a-Z | 0-9</text>
</g>
</g>
</svg>