<?xml version="1.0" encoding="UTF-8" standalone="no"?><!DOCTYPE svg PUBLIC "-//W3C//DTD SVG 1.1//EN" "http://www.w3.org/Graphics/SVG/1.1/DTD/svg11.dtd"><!-- Generated by graphviz version 2.40.1 (20161225.0304)
 --><!-- Title: finite_state_machine Pages: 1 --><svg xmlns="http://www.w3.org/2000/svg" xmlns:xlink="http://www.w3.org/1999/xlink" width="470pt" height="76pt" viewBox="0.00 0.00 470.35 76.20">
<g id="graph0" class="graph" transform="scale(1 1) rotate(0) translate(4 72.1972)">
<title>finite_state_machine</title>
<polygon fill="#ffffff" stroke="transparent" points="-4,4 -4,-72.1972 466.3528,-72.1972 466.3528,4 -4,4"/>
<!-- Q0 -->
<g id="node1" class="node">
<title>Q0</title>
<ellipse fill="none" stroke="#4b0082" cx="26.8363" cy="-41.3608" rx="22.6979" ry="22.6979"/>
<ellipse fill="none" stroke="#4b0082" cx="26.8363" cy="-41.3608" rx="26.6736" ry="26.6736"/>
<text text-anchor="middle" x="26.8363" y="-37.1608" font-family="Times,serif" font-size="14.00" fill="#000000">Q0</text>
</g>
<!-- Q1 -->
<g id="node2" class="node">
<title>Q1</title>
<ellipse fill="none" stroke="#4b0082" cx="231.1764" cy="-41.3608" rx="22.6979" ry="22.6979"/>
<ellipse fill="none" stroke="#4b0082" cx="231.1764" cy="-41.3608" rx="26.6736" ry="26.6736"/>
<text text-anchor="middle" x="231.1764" y="-37.1608" font-family="Times,serif" font-size="14.00" fill="#000000">Q1</text>
</g>
<!-- Q0&#45;&gt;Q1 -->
<g id="edge1" class="edge">
<title>Q0-&gt;Q1</title>
<path fill="none" stroke="#3d3d3d" d="M53.9711,-41.3608C89.9476,-41.3608 153.588,-41.3608 194.0106,-41.3608"/>
<polygon fill="#3d3d3d" stroke="#3d3d3d" points="194.2549,-44.8609 204.2548,-41.3608 194.2548,-37.8609 194.2549,-44.8609"/>
<text text-anchor="middle" x="129.0064" y="-45.5608" font-family="Times,serif" font-size="14.00" fill="#000000">0-9 | a-z | A-Z</text>
</g>
<!-- Q2 -->
<g id="node3" class="node">
<title>Q2</title>
<ellipse fill="none" stroke="#4b0082" cx="435.5164" cy="-41.3608" rx="22.6979" ry="22.6979"/>
<ellipse fill="none" stroke="#4b0082" cx="435.5164" cy="-41.3608" rx="26.6736" ry="26.6736"/>
<text text-anchor="middle" x="435.5164" y="-37.1608" font-family="Times,serif" font-size="14.00" fill="#000000">Q2</text>
</g>
<!-- Q1&#45;&gt;Q2 -->
<g id="edge2" class="edge">
<title>Q1-&gt;Q2</title>
<path fill="none" stroke="#3d3d3d" d="M258.3112,-41.3608C294.2877,-41.3608 357.928,-41.3608 398.3507,-41.3608"/>
<polygon fill="#3d3d3d" stroke="#3d3d3d" points="398.5949,-44.8609 408.5949,-41.3608 398.5949,-37.8609 398.5949,-44.8609"/>
<text text-anchor="middle" x="333.3464" y="-45.5608" font-family="Times,serif" font-size="14.00" fill="#000000">+ | *</text>
</g>
<!-- Q2&#45;&gt;Q1 -->
<g id="edge3" class="edge">
<title>Q2-&gt;Q1</title>
<path fill="none" stroke="#3d3d3d" d="M413.7117,-25.6845C402.1262,-18.317 387.2893,-10.3361 372.6801,-6.5608 338.8289,2.1869 327.864,2.1869 294.0127,-6.5608 282.8275,-9.4513 271.5089,-14.807 261.6182,-20.4652"/>
<polygon fill="#3d3d3d" stroke="#3d3d3d" points="259.7297,-17.517 252.9812,-25.6845 263.35,-23.5081 259.7297,-17.517"/>
<text text-anchor="middle" x="333.3464" y="-10.5608" font-family="Times,serif" font-size="14.00" fill="#000000">0-9 | a-z | A-Z</text>
</g>
</g>
</svg>